<?xml version="1.0" encoding="UTF-8" standalone="no"?>
<svg
   viewBox="0 0 100 100"
   version="1.1"
   id="svg4"
   sodipodi:docname="volume-high-solid.svg"
   width="100"
   height="100"
   inkscape:version="1.1.1 (3bf5ae0d25, 2021-09-20)"
   xmlns:inkscape="http://www.inkscape.org/namespaces/inkscape"
   xmlns:sodipodi="http://sodipodi.sourceforge.net/DTD/sodipodi-0.dtd"
   xmlns="http://www.w3.org/2000/svg"
   xmlns:svg="http://www.w3.org/2000/svg">
  <defs
     id="defs8" />
  <sodipodi:namedview
     id="namedview6"
     pagecolor="#505050"
     bordercolor="#ffffff"
     borderopacity="1"
     inkscape:pageshadow="0"
     inkscape:pageopacity="0"
     inkscape:pagecheckerboard="1"
     showgrid="false"
     scale-x="1"
     inkscape:zoom="6.6125"
     inkscape:cx="90.20794"
     inkscape:cy="37.58034"
     inkscape:window-width="1398"
     inkscape:window-height="1081"
     inkscape:window-x="211"
     inkscape:window-y="131"
     inkscape:window-maximized="0"
     inkscape:current-layer="svg4"
     showguides="true"
     inkscape:guide-bbox="true">
    <sodipodi:guide
       position="49.998732,312.47289"
       orientation="1,0"
       id="guide1787" />
    <sodipodi:guide
       position="5.9883523,50.168354"
       orientation="0,-1"
       id="guide1789" />
  </sodipodi:namedview>
  <!--!Font Awesome Free 6.7.2 by @fontawesome - https://fontawesome.com License - https://fontawesome.com/license/free Copyright 2024 Fonticons, Inc.-->
  <path
     d="m 75.374349,25.39268 c 7.083344,5.751806 11.612755,14.548687 11.612755,24.393334 0,9.844648 -4.529411,18.630615 -11.612755,24.393335 -1.124167,0.916797 -2.772218,0.742169 -3.689015,-0.381998 -0.916796,-1.124167 -0.742168,-2.772218 0.381999,-3.689015 5.91552,-4.802267 9.680934,-12.11481 9.680934,-20.322322 0,-8.207511 -3.765414,-15.520054 -9.680934,-20.333236 -1.124167,-0.916796 -1.287881,-2.564847 -0.381999,-3.689014 0.905883,-1.124167 2.564848,-1.287881 3.689015,-0.381999 z m -6.603118,8.131111 c 4.714954,3.841814 7.738199,9.702763 7.738199,16.262223 0,6.559461 -3.023245,12.42041 -7.738199,16.262224 -1.124167,0.916796 -2.772217,0.742168 -3.689014,-0.381999 -0.916796,-1.124167 -0.742169,-2.772218 0.381999,-3.689014 3.547129,-2.881361 5.806377,-7.268887 5.806377,-12.191211 0,-4.922323 -2.259248,-9.309849 -5.806377,-12.202124 -1.124168,-0.916797 -1.287881,-2.564847 -0.381999,-3.689014 0.905882,-1.124168 2.564847,-1.287881 3.689014,-0.381999 z m -6.603117,8.131112 c 2.346562,1.920907 3.863642,4.845924 3.863642,8.131111 0,3.285188 -1.51708,6.210205 -3.863642,8.131112 -1.124167,0.916797 -2.772218,0.742169 -3.689014,-0.381998 -0.916797,-1.124168 -0.742169,-2.772218 0.381998,-3.689015 1.178738,-0.960453 1.931821,-2.422962 1.931821,-4.060099 0,-1.637136 -0.753083,-3.099645 -1.931821,-4.071012 -1.124167,-0.916797 -1.287881,-2.564848 -0.381998,-3.689015 0.905882,-1.124167 2.564847,-1.287881 3.689014,-0.381998 z M 49.998732,25.643707 c 1.255138,0.567541 2.062792,1.811765 2.062792,3.186959 v 41.910696 c 0,1.375195 -0.807654,2.619419 -2.062792,3.18696 -1.255138,0.56754 -2.728561,0.338341 -3.7545,-0.578455 L 31.520917,60.263688 H 24.12106 c -3.852728,0 -6.985116,-3.132388 -6.985116,-6.985116 v -6.985116 c 0,-3.852728 3.132388,-6.985116 6.985116,-6.985116 h 7.399857 L 46.244232,26.222162 c 1.025939,-0.916796 2.499362,-1.135081 3.7545,-0.578455 z"
     id="path846"
     style="fill:#ffffff;fill-opacity:1;stroke:#ffffff;stroke-width:0.109142;stroke-opacity:1" />
</svg>
