<?xml version="1.0" encoding="UTF-8" standalone="no"?>
<svg
   viewBox="0 0 100 100"
   version="1.1"
   id="svg4"
   sodipodi:docname="volume-xmark-solid.svg"
   width="100"
   height="100"
   inkscape:version="1.1.1 (3bf5ae0d25, 2021-09-20)"
   xmlns:inkscape="http://www.inkscape.org/namespaces/inkscape"
   xmlns:sodipodi="http://sodipodi.sourceforge.net/DTD/sodipodi-0.dtd"
   xmlns="http://www.w3.org/2000/svg"
   xmlns:svg="http://www.w3.org/2000/svg">
  <defs
     id="defs8" />
  <sodipodi:namedview
     id="namedview6"
     pagecolor="#505050"
     bordercolor="#ffffff"
     borderopacity="1"
     inkscape:pageshadow="0"
     inkscape:pageopacity="0"
     inkscape:pagecheckerboard="1"
     showgrid="false"
     showguides="true"
     inkscape:guide-bbox="true"
     inkscape:zoom="4.8226892"
     inkscape:cx="55.044759"
     inkscape:cy="101.44727"
     inkscape:window-width="1545"
     inkscape:window-height="1113"
     inkscape:window-x="1745"
     inkscape:window-y="174"
     inkscape:window-maximized="0"
     inkscape:current-layer="svg4">
    <sodipodi:guide
       position="-171.75129,50.001171"
       orientation="0,-1"
       id="guide825" />
    <sodipodi:guide
       position="49.998038,135.88506"
       orientation="1,0"
       id="guide827" />
  </sodipodi:namedview>
  <!--!Font Awesome Free 6.7.2 by @fontawesome - https://fontawesome.com License - https://fontawesome.com/license/free Copyright 2024 Fonticons, Inc.-->
  <path
     d="m 62.112126,38.374339 7.191756,7.19176 7.191757,-7.19176 c 1.22913,-1.22914 3.21667,-1.22914 4.43274,0 1.21606,1.22914 1.22913,3.21668 0,4.43274 l -7.19176,7.19175 7.19176,7.19176 c 1.22913,1.22914 1.22913,3.21668 0,4.43274 -1.22914,1.21606 -3.21668,1.22913 -4.43274,0 l -7.191757,-7.19176 -7.191756,7.19176 c -1.229137,1.22913 -3.216677,1.22913 -4.432738,0 -1.216061,-1.22914 -1.229137,-3.21668 0,-4.43274 l 7.191756,-7.19176 -7.191756,-7.19175 c -1.229137,-1.22914 -1.229137,-3.21668 0,-4.43274 1.229136,-1.21606 3.216677,-1.22914 4.432738,0 z"
     id="path2"
     style="fill:#ffffff;fill-opacity:1;stroke-width:0.130759"
     sodipodi:nodetypes="cccscccsccssccssc" />
  <path
     d="m 49.998038,26.199799 c 1.255138,0.56754 2.062792,1.81177 2.062792,3.18696 v 41.910697 c 0,1.37519 -0.807654,2.61942 -2.062792,3.18696 -1.255138,0.56754 -2.728561,0.33834 -3.7545,-0.57846 L 31.520223,60.819776 h -7.399857 c -3.852728,0 -6.985116,-3.13238 -6.985116,-6.98511 v -6.98512 c 0,-3.85272 3.132388,-6.98511 6.985116,-6.98511 h 7.399857 L 46.243538,26.778259 c 1.025939,-0.9168 2.499362,-1.13508 3.7545,-0.57846 z"
     id="path846"
     style="fill:#ffffff;fill-opacity:1;stroke:#ffffff;stroke-width:0.109142;stroke-opacity:1"
     sodipodi:nodetypes="csssccssssccc" />
</svg>
